<?xml version="1.0" encoding="UTF-8" standalone="no"?>
<!-- Created with Inkscape (http://www.inkscape.org/) -->

<svg
   xmlns:dc="http://purl.org/dc/elements/1.1/"
   xmlns:cc="http://creativecommons.org/ns#"
   xmlns:rdf="http://www.w3.org/1999/02/22-rdf-syntax-ns#"
   xmlns:svg="http://www.w3.org/2000/svg"
   xmlns="http://www.w3.org/2000/svg"
   xmlns:sodipodi="http://sodipodi.sourceforge.net/DTD/sodipodi-0.dtd"
   xmlns:inkscape="http://www.inkscape.org/namespaces/inkscape"
   width="360"
   height="360"
   id="svg2"
   version="1.1"
   inkscape:version="0.48.5 r10040"
   sodipodi:docname="peopleInSpace.svg"
   inkscape:export-filename="/home/daniel/AndroidStudioProjects/FlipdotApp/app/src/main/res/drawable/peopleinspace_mock.png"
   inkscape:export-xdpi="90"
   inkscape:export-ydpi="90">
  <defs
     id="defs4" />
  <sodipodi:namedview
     id="base"
     pagecolor="#005a9f"
     bordercolor="#666666"
     borderopacity="1.0"
     inkscape:pageopacity="0"
     inkscape:pageshadow="2"
     inkscape:zoom="1"
     inkscape:cx="102.99686"
     inkscape:cy="176.93797"
     inkscape:document-units="px"
     inkscape:current-layer="layer2"
     showgrid="false"
     showguides="true"
     inkscape:guide-bbox="true"
     inkscape:window-width="1596"
     inkscape:window-height="861"
     inkscape:window-x="0"
     inkscape:window-y="18"
     inkscape:window-maximized="0"
     inkscape:snap-global="false">
    <sodipodi:guide
       orientation="1,0"
       position="20,431.46141"
       id="guide3854" />
    <sodipodi:guide
       orientation="1,0"
       position="340,368.70313"
       id="guide3858" />
    <sodipodi:guide
       orientation="0,1"
       position="-370,20"
       id="guide3860" />
    <sodipodi:guide
       orientation="0,1"
       position="-630,340"
       id="guide3862" />
    <inkscape:grid
       type="xygrid"
       id="grid4471"
       empspacing="5"
       visible="true"
       enabled="true"
       snapvisiblegridlinesonly="true" />
  </sodipodi:namedview>
  <metadata
     id="metadata7">
    <rdf:RDF>
      <cc:Work
         rdf:about="">
        <dc:format>image/svg+xml</dc:format>
        <dc:type
           rdf:resource="http://purl.org/dc/dcmitype/StillImage" />
        <dc:title></dc:title>
      </cc:Work>
    </rdf:RDF>
  </metadata>
  <g
     inkscape:label="base"
     inkscape:groupmode="layer"
     id="layer1"
     transform="translate(0,-692.36218)"
     style="display:inline">
    <rect
       style="fill:#005a9f;fill-opacity:1;fill-rule:evenodd;stroke:none"
       id="rect2985"
       width="359.99609"
       height="359.99609"
       x="0.0039062593"
       y="692.36609" />
  </g>
  <g
     inkscape:groupmode="layer"
     id="layer2"
     inkscape:label="closed"
     style="display:inline">
    <text
       xml:space="preserve"
       style="font-size:95.7490918px;font-style:normal;font-weight:normal;line-height:125%;letter-spacing:0px;word-spacing:0px;fill:#ffffff;fill-opacity:1;stroke:none;display:inline;font-family:ISOCPEUR;-inkscape-font-specification:ISOCPEUR;font-stretch:normal;font-variant:normal;text-anchor:start;text-align:start;writing-mode:lr"
       x="15.492876"
       y="83.894958"
       id="text3755-1"
       sodipodi:linespacing="125%"
       transform="scale(1.0015899,0.99841263)"><tspan
         sodipodi:role="line"
         id="tspan3757-7"
         x="15.492876"
         y="83.894958"
         style="font-size:95.7490918px;font-style:normal;font-variant:normal;font-weight:normal;font-stretch:normal;text-align:start;line-height:125%;writing-mode:lr;text-anchor:start;fill:#ffffff;fill-opacity:1;font-family:ISOCPEUR;-inkscape-font-specification:ISOCPEUR">People</tspan></text>
    <text
       xml:space="preserve"
       style="font-size:57.62593079px;font-style:normal;font-variant:normal;font-weight:normal;font-stretch:normal;text-align:start;line-height:125%;letter-spacing:0px;word-spacing:0px;writing-mode:lr-tb;text-anchor:start;fill:#ffffff;fill-opacity:1;stroke:none;display:inline;font-family:ISOCPEUR;-inkscape-font-specification:ISOCPEUR"
       x="17.750647"
       y="130.16968"
       id="text3755-1-4"
       sodipodi:linespacing="125%"
       transform="scale(1.0015899,0.99841263)"><tspan
         sodipodi:role="line"
         id="tspan3757-7-0"
         x="17.750647"
         y="130.16968"
         style="font-size:57.62593079px;font-style:normal;font-variant:normal;font-weight:normal;font-stretch:normal;text-align:start;line-height:125%;writing-mode:lr-tb;text-anchor:start;fill:#ffffff;fill-opacity:1;font-family:ISOCPEUR;-inkscape-font-specification:ISOCPEUR">in Space</tspan></text>
    <path
       id="path4462"
       d="m 346.06585,296.24234 q 0,0.34723 -0.0695,0.48612 -4.44452,18.61148 -18.61147,30.17421 -14.16695,11.56273 -33.1951,11.56273 -10.13909,0 -19.61844,-3.81953 -9.47936,-3.81951 -16.91006,-10.90299 l -8.95851,8.95851 q -1.31947,1.31948 -3.12506,1.31948 -1.80559,0 -3.12506,-1.31948 -1.31947,-1.31947 -1.31947,-3.12506 v -31.11172 q 0,-1.8056 1.31947,-3.12506 1.31947,-1.31947 3.12506,-1.31947 h 31.11173 q 1.80559,0 3.12506,1.31947 1.31947,1.31946 1.31947,3.12506 0,1.80559 -1.31947,3.12506 l -9.51408,9.51408 q 4.93065,4.58342 11.18077,7.08347 6.25013,2.50005 12.98637,2.50005 9.30574,0 17.36146,-4.51398 8.05571,-4.51397 12.91691,-12.4308 0.76391,-1.18058 3.68064,-8.12516 0.55556,-1.59725 2.08337,-1.59725 h 13.33359 q 0.9028,0 1.56254,0.65973 0.65973,0.65974 0.65973,1.56253 z m 1.73615,-55.55665 v 31.11173 q 0,1.80559 -1.31947,3.12506 -1.31948,1.31947 -3.12506,1.31947 h -31.11173 q -1.80559,0 -3.12506,-1.31947 -1.31947,-1.31947 -1.31947,-3.12506 0,-1.8056 1.31947,-3.12507 l 9.58352,-9.58352 q -10.27798,-9.51407 -24.23659,-9.51407 -9.30573,0 -17.36145,4.51398 -8.05571,4.51397 -12.91692,12.43079 -0.7639,1.18058 -3.68063,8.12517 -0.55557,1.59725 -2.08337,1.59725 h -13.81972 q -0.90279,0 -1.56253,-0.65973 -0.65974,-0.65974 -0.65974,-1.56254 v -0.48612 q 4.51398,-18.61147 18.75037,-30.1742 14.23639,-11.56273 33.33399,-11.56273 10.13909,0 19.72261,3.85424 9.58352,3.85424 17.01423,10.86827 l 9.02795,-8.95851 q 1.31948,-1.31947 3.12507,-1.31947 1.80558,0 3.12506,1.31947 1.31947,1.31947 1.31947,3.12506 z"
       inkscape:connector-curvature="0" />
  </g>
  <g
     style="display:none"
     inkscape:label="open"
     id="g3873"
     inkscape:groupmode="layer">
    <text
       transform="matrix(1.0015899,0,0,0.99841263,0,-692.36218)"
       sodipodi:linespacing="80.000001%"
       id="text3881"
       y="877.83551"
       x="625.8476"
       style="font-size:43.70452499px;font-style:normal;font-variant:normal;font-weight:normal;font-stretch:normal;text-align:start;line-height:80.00000119%;letter-spacing:0px;word-spacing:0px;writing-mode:lr-tb;text-anchor:start;fill:#000000;fill-opacity:1;stroke:none;display:inline;font-family:White Rabbit;-inkscape-font-specification:White Rabbit"
       xml:space="preserve"><tspan
         style="font-size:43.70452499px;font-style:normal;font-variant:normal;font-weight:normal;font-stretch:normal;text-align:center;line-height:80.00000119%;writing-mode:lr-tb;text-anchor:middle;fill:#000000;fill-opacity:1;font-family:White Rabbit;-inkscape-font-specification:White Rabbit"
         y="877.83551"
         x="625.8476"
         id="tspan3883"
         sodipodi:role="line">Tap to</tspan><tspan
         id="tspan3885"
         style="font-size:43.70452499px;font-style:normal;font-variant:normal;font-weight:normal;font-stretch:normal;text-align:center;line-height:80.00000119%;writing-mode:lr-tb;text-anchor:middle;fill:#000000;fill-opacity:1;font-family:White Rabbit;-inkscape-font-specification:White Rabbit"
         y="912.79913"
         x="625.8476"
         sodipodi:role="line">close</tspan></text>
    <text
       transform="matrix(1.0015899,0,0,0.99841263,0,-692.36218)"
       sodipodi:linespacing="125%"
       id="text3887"
       y="1034.0035"
       x="13.566478"
       style="font-size:137.31462097px;font-style:normal;font-weight:normal;line-height:125%;letter-spacing:0px;word-spacing:0px;fill:#f5c500;fill-opacity:1;stroke:none;display:inline;font-family:Sans"
       xml:space="preserve"><tspan
         style="font-size:137.31462097px;font-style:normal;font-variant:normal;font-weight:normal;font-stretch:normal;text-align:start;line-height:125%;writing-mode:lr-tb;text-anchor:start;fill:#f5c500;fill-opacity:1;font-family:White Rabbit;-inkscape-font-specification:White Rabbit"
         y="1034.0035"
         x="13.566478"
         id="tspan3889"
         sodipodi:role="line">OPEN</tspan></text>
    <g
       style="display:inline"
       id="g3798"
       transform="matrix(1.4245938,0,0,1.4200748,581.48908,20)">
      <path
         id="path3800"
         d="M 59.646,32.327 H 57.288 C 57.305,26.141 56.305,14.884 49.593,7.386 45.207,2.485 39.229,0 31.823,0 24.417,0 18.439,2.485 14.053,7.386 7.341,14.884 6.341,26.142 6.358,32.327 H 4 c -2.209,0 -4,1.791 -4,4 v 50.472 c 0,2.209 1.791,4 4,4 h 55.646 c 2.209,0 4,-1.791 4,-4 V 36.327 c 0,-2.209 -1.791,-4 -4,-4 z M 20.03,12.704 C 22.871,9.539 26.729,8 31.823,8 c 5.094,0 8.952,1.539 11.793,4.704 4.963,5.528 5.684,14.626 5.666,19.623 H 14.364 C 14.347,27.33 15.067,18.232 20.03,12.704 z M 55.646,82.799 H 8 V 40.327 h 47.646 v 42.472 z"
         inkscape:connector-curvature="0" />
      <path
         id="path3802"
         d="m 37.051,61.487 c 0.735,-1.131 1.762,-3.082 1.762,-5.16 0,-3.732 -2.418,-7.697 -6.9,-7.697 -4.481,0 -6.9,3.965 -6.9,7.697 0,2.084 1.06,4.039 1.821,5.174 l -3.938,10.193 c -0.238,0.615 -0.157,1.307 0.216,1.852 0.373,0.543 0.99,0.869 1.648,0.869 h 14.304 c 0.657,0 1.271,-0.324 1.646,-0.865 0.373,-0.541 0.457,-1.23 0.225,-1.846 L 37.051,61.487 z m -9.374,8.928 3.282,-8.498 c 0.265,-0.682 0.131,-1.455 -0.339,-2.014 -0.418,-0.496 -1.61,-2.221 -1.61,-3.576 0,-0.037 0.079,-3.697 2.901,-3.697 2.821,0 2.9,3.66 2.9,3.697 0,1.373 -1.155,3.105 -1.557,3.598 -0.455,0.555 -0.579,1.311 -0.324,1.98 l 3.231,8.51 h -8.484 z"
         inkscape:connector-curvature="0" />
    </g>
  </g>
</svg>
